{
  "asset": {
    "version": "2.0",
    "generator": "Codex"
  },
  "scene": 0,
  "scenes": [
    {
      "nodes": [0]
    }
  ],
  "nodes": [
    {
      "name": "OperatorRoot",
      "children": [1, 2, 3, 4, 5, 6]
    },
    {
      "name": "Torso",
      "mesh": 0,
      "translation": [0, 1.3, 0],
      "scale": [0.9, 1.2, 0.55]
    },
    {
      "name": "Head",
      "mesh": 0,
      "translation": [0, 2.45, 0.05],
      "scale": [0.5, 0.55, 0.5]
    },
    {
      "name": "LeftArm",
      "mesh": 0,
      "translation": [-0.78, 1.38, 0.04],
      "rotation": [0, 0, 0.29552020666133955, 0.955336489125606],
      "scale": [0.25, 0.95, 0.25]
    },
    {
      "name": "RightArm",
      "mesh": 0,
      "translation": [0.78, 1.28, 0.22],
      "rotation": [0.05052589429561698, 0.00609966082404558, -0.11963983724852978, 0.9915244730374174],
      "scale": [0.24, 0.95, 0.24]
    },
    {
      "name": "Legs",
      "children": [7, 8]
    },
    {
      "name": "Weapon",
      "mesh": 0,
      "translation": [0.9, 1.15, 0.82],
      "rotation": [0.015543789144677609, -0.14479246283091118, -0.10691838309415355, 0.9833474432563558],
      "scale": [0.16, 0.16, 1.1]
    },
    {
      "name": "LeftLeg",
      "mesh": 0,
      "translation": [-0.28, 0.52, 0],
      "scale": [0.28, 1.05, 0.3]
    },
    {
      "name": "RightLeg",
      "mesh": 0,
      "translation": [0.28, 0.52, 0],
      "scale": [0.28, 1.05, 0.3]
    }
  ],
  "meshes": [
    {
      "name": "UnitCube",
      "primitives": [
        {
          "attributes": {
            "POSITION": 0,
            "NORMAL": 1
          },
          "indices": 2,
          "material": 0
        }
      ]
    }
  ],
  "materials": [
    {
      "name": "Armor",
      "pbrMetallicRoughness": {
        "baseColorFactor": [0.78, 0.76, 0.72, 1],
        "metallicFactor": 0.35,
        "roughnessFactor": 0.55
      }
    }
  ],
  "buffers": [
    {
      "uri": "data:application/octet-stream;base64,",
      "byteLength": 648
    }
  ],
  "bufferViews": [
    {
      "buffer": 0,
      "byteOffset": 0,
      "byteLength": 288,
      "target": 34962
    },
    {
      "buffer": 0,
      "byteOffset": 288,
      "byteLength": 288,
      "target": 34962
    },
    {
      "buffer": 0,
      "byteOffset": 576,
      "byteLength": 72,
      "target": 34963
    }
  ],
  "accessors": [
    {
      "bufferView": 0,
      "componentType": 5126,
      "count": 24,
      "type": "VEC3",
      "min": [-0.5, -0.5, -0.5],
      "max": [0.5, 0.5, 0.5]
    },
    {
      "bufferView": 1,
      "componentType": 5126,
      "count": 24,
      "type": "VEC3"
    },
    {
      "bufferView": 2,
      "componentType": 5123,
      "count": 36,
      "type": "SCALAR"
    }
  ]
}
